<svg width="46" height="18" viewBox="0 0 46 18" fill="none" xmlns="http://www.w3.org/2000/svg">
<path d="M12.4297 9.19727H10.25L10.2383 8.06055H12.1074C12.4277 8.06055 12.6953 8.01562 12.9102 7.92578C13.125 7.83594 13.2871 7.70508 13.3965 7.5332C13.5098 7.36133 13.5664 7.15234 13.5664 6.90625C13.5664 6.63281 13.5137 6.41016 13.4082 6.23828C13.3066 6.06641 13.1465 5.94141 12.9277 5.86328C12.709 5.78125 12.4316 5.74023 12.0957 5.74023H10.7715V13H9.16016V4.46875H12.0957C12.5801 4.46875 13.0117 4.51562 13.3906 4.60938C13.7734 4.69922 14.0977 4.83984 14.3633 5.03125C14.6289 5.22266 14.8301 5.46289 14.9668 5.75195C15.1074 6.04102 15.1777 6.38477 15.1777 6.7832C15.1777 7.13477 15.0957 7.45898 14.9316 7.75586C14.7715 8.04883 14.5234 8.28711 14.1875 8.4707C13.8555 8.6543 13.4336 8.75977 12.9219 8.78711L12.4297 9.19727ZM12.3594 13H9.77539L10.4492 11.7344H12.3594C12.6797 11.7344 12.9434 11.6816 13.1504 11.5762C13.3613 11.4707 13.5176 11.3262 13.6191 11.1426C13.7246 10.9551 13.7773 10.7402 13.7773 10.498C13.7773 10.2324 13.7305 10.002 13.6367 9.80664C13.5469 9.61133 13.4023 9.46094 13.2031 9.35547C13.0078 9.25 12.75 9.19727 12.4297 9.19727H10.7539L10.7656 8.06055H12.8984L13.2676 8.5C13.7598 8.50391 14.1602 8.60156 14.4688 8.79297C14.7812 8.98438 15.0117 9.23047 15.1602 9.53125C15.3086 9.83203 15.3828 10.1562 15.3828 10.5039C15.3828 11.0508 15.2637 11.5098 15.0254 11.8809C14.791 12.252 14.4473 12.5312 13.9941 12.7188C13.5449 12.9062 13 13 12.3594 13ZM22.4316 11.7344V13H17.8965V11.7344H22.4316ZM18.3887 4.46875V13H16.7773V4.46875H18.3887ZM21.8398 7.99023V9.22656H17.8965V7.99023H21.8398ZM22.4141 4.46875V5.74023H17.8965V4.46875H22.4141ZM27.3301 4.46875V13H25.7246V4.46875H27.3301ZM29.9785 4.46875V5.74023H23.1055V4.46875H29.9785ZM33.8457 5.76367L31.4141 13H29.709L32.8965 4.46875H33.9863L33.8457 5.76367ZM35.8789 13L33.4355 5.76367L33.2891 4.46875H34.3848L37.5898 13H35.8789ZM35.7676 9.83008V11.1016H31.1914V9.83008H35.7676Z" fill="#9A6700"/>
<rect x="0.5" y="0.5" width="45" height="17" rx="8.5" stroke="#BF8700"/>
</svg>
